
        <svg xmlns="http://www.w3.org/2000/svg" xmlns:xlink="http://www.w3.org/1999/xlink" version="1.1" width="3226.4150943396226" height="735.8490566037735" viewBox="0 0 3226.4150943396226 735.8490566037735">
			
			<g transform="scale(11.320754716981131) translate(10, 10)">
				<defs id="SvgjsDefs2305"/><g id="SvgjsG2306" featureKey="symbolFeature-0" transform="matrix(0.5625,0,0,0.5625,-5.625,-5.625)" fill="#fff"><path xmlns="http://www.w3.org/2000/svg" d="M35,65.833c0-8.587,3.535-16.36,9.219-21.956c-3.063-1.406-6.458-2.21-10.052-2.21C20.82,41.667,10,52.487,10,65.833  C10,79.18,20.82,90,34.167,90c3.594,0,6.988-0.804,10.052-2.21C38.535,82.194,35,74.421,35,65.833z"/><path xmlns="http://www.w3.org/2000/svg" d="M65.833,65c-8.587,0-16.36-3.535-21.956-9.222c-1.406,3.066-2.21,6.461-2.21,10.055C41.667,79.18,52.487,90,65.833,90  C79.18,90,90,79.18,90,65.833c0-3.594-0.804-6.988-2.21-10.055C82.194,61.465,74.421,65,65.833,65z"/><path xmlns="http://www.w3.org/2000/svg" d="M65.833,10c-3.594,0-6.988,0.804-10.055,2.21C61.465,17.806,65,25.579,65,34.167c0,8.587-3.535,16.36-9.222,21.956  c3.066,1.406,6.461,2.21,10.055,2.21C79.18,58.333,90,47.513,90,34.167C90,20.82,79.18,10,65.833,10z"/><path xmlns="http://www.w3.org/2000/svg" d="M34.167,35c8.587,0,16.36,3.535,21.956,9.219c1.406-3.063,2.21-6.458,2.21-10.052C58.333,20.82,47.513,10,34.167,10  C20.82,10,10,20.82,10,34.167c0,3.594,0.804,6.988,2.21,10.052C17.806,38.535,25.579,35,34.167,35z"/></g><g id="SvgjsG2307" featureKey="nameFeature-0" transform="matrix(1.3789298691199117,0,0,1.3789298691199117,62.68339575525005,-13.216215576462162)" fill="#fff"><path d="M27.44 28.68 c0 1.8 -0.24 3.32 -0.88 5 c-1.96 5.12 -7.08 7.08 -12.12 7.08 c-1.04 0 -3.84 -0.08 -6.64 -1.32 c-1.2 -0.52 -4.08 -1.92 -5.4 -5.4 c-0.52 -1.4 -0.72 -2.56 -0.72 -5.52 l0 -16.76 l8.96 0 l0 17.64 c0 0.28 -0.04 1.28 0.28 2.16 c0.72 2.16 2.96 2.28 3.6 2.28 c0.6 0 2.84 -0.12 3.64 -2.24 c0.28 -0.72 0.28 -1.36 0.28 -2.2 l0 -17.64 l9 0 l0 16.92 z M53.04 40 l-8.24 0 l0 -11.32 c0 -0.48 0 -0.92 -0.12 -1.4 c-0.2 -0.72 -0.8 -1.72 -2.68 -1.72 c-3.04 0 -3 2.52 -3 3.4 l0 11.04 l-8.2 0 l0 -20.72 l7.76 0 l0 2.76 c0.52 -0.76 0.6 -0.84 1 -1.24 c1.52 -1.52 3.72 -2.08 5.84 -2.08 c0.76 0 3.32 0.04 5.28 1.72 c1.08 0.88 1.76 2.24 2.08 3.6 c0.16 0.68 0.28 1.4 0.28 2.88 l0 13.08 z M64.92 17.24 l-8.24 0 l0 -5.48 l8.24 0 l0 5.48 z M64.92 40 l-8.24 0 l0 -20.72 l8.24 0 l0 20.72 z M94.88000000000001 40 l-9 0 l0 -10.88 l-8.52 0 l0 10.88 l-8.92 0 l0 -28.24 l8.92 0 l0 10.28 l8.52 0 l0 -10.28 l9 0 l0 28.24 z M120.76 40 l-7.84 0 l0 -3.04 c-0.28 0.56 -0.48 1.08 -1.4 1.84 c-0.96 0.8 -2.56 1.72 -5.44 1.72 c-0.76 0 -3.44 -0.04 -5.48 -1.76 c-0.56 -0.48 -1.52 -1.52 -2 -3.36 c-0.24 -0.84 -0.36 -1.72 -0.36 -3.52 l0 -12.6 l8.28 0 l0 11.28 c0 0.96 -0.08 3.36 3 3.36 c0.8 0 1.6 -0.2 2.12 -0.72 c0.96 -1 0.84 -2.76 0.84 -2.96 l0 -10.96 l8.28 0 l0 20.72 z M146.72 29.2 c0 1.16 -0.08 7.28 -4.68 10.08 c-1.4 0.84 -3.04 1.24 -4.68 1.24 c-2.12 0 -3.6 -0.68 -4.32 -1.16 c-0.36 -0.28 -0.6 -0.56 -0.88 -0.88 l0 1.52 l-7.96 0 l0 -28.24 l8.2 0 l0.04 8.96 c0.36 -0.36 0.64 -0.6 1.08 -0.92 c1.2 -0.8 2.68 -1.12 4.16 -1.12 c2.56 0 4.72 0.88 6.44 2.76 c1.24 1.36 2.6 3.6 2.6 7.76 z M138.60000000000002 29.6 c0 -1.28 -0.12 -2.76 -0.88 -3.84 c-0.72 -1.04 -1.84 -1.2 -2.28 -1.2 c-0.32 0 -1.08 0.08 -1.76 0.6 c-1.32 1.08 -1.48 2.88 -1.48 4.44 c0 1.44 0.16 3.36 1.36 4.32 c0.24 0.2 0.92 0.64 1.84 0.64 c0.36 0 1.32 -0.12 2.08 -0.88 c0.68 -0.72 1.12 -2 1.12 -4.08 z"/></g>
			</g>
		</svg>
	